<?xml version="1.0" encoding="utf-8"?>
<!-- Generator: Adobe Illustrator 19.0.0, SVG Export Plug-In . SVG Version: 6.00 Build 0)  -->
<svg version="1.1" id="Layer_1" xmlns="http://www.w3.org/2000/svg" xmlns:xlink="http://www.w3.org/1999/xlink" x="0px" y="0px"
	 viewBox="73 468.5 994.6 254" style="enable-background:new 73 468.5 994.6 254;" xml:space="preserve">
<style type="text/css">
	.st0{fill:#FFFFFF;}
</style>
<polygon id="XMLID_199_" class="st0" points="73,511.8 237.9,511.8 237.9,722.5 178.9,722.5 178.9,562.9 73,562.9 73,511.8 "/>
<polygon id="XMLID_194_" class="st0" points="74.8,627.7 125.2,627.7 125.2,722.5 74.8,722.5 74.8,627.7 "/>
<polygon id="XMLID_189_" class="st0" points="247.5,511.8 299.9,511.8 299.9,606.6 247.5,606.6 247.5,511.8 "/>
<polygon id="XMLID_179_" class="st0" points="457.7,511.8 629.4,511.8 629.4,722.5 538.4,722.5 538.4,666.3 574.2,666.3 
	574.2,560.9 537,560.9 514.3,722.5 451.7,722.5 478.5,560.9 457.7,560.9 457.7,511.8 "/>
<g id="XMLID_114_">
	<polygon id="XMLID_115_" class="st0" points="451.7,722.5 459.5,722.5 459.5,675.7 	"/>
	<polygon id="XMLID_117_" class="st0" points="443.8,721.2 452.9,666.3 427.1,666.3 427.1,511.8 309.2,511.8 309.2,560.9 
		309.2,562.9 374.4,562.9 374.5,666.3 250,666.3 250,722.5 443.6,722.5 	"/>
</g>
<polygon id="XMLID_173_" class="st0" points="642.1,511.8 696.2,511.8 696.2,722.5 642.1,722.5 642.1,511.8 "/>
<polygon id="XMLID_167_" class="st0" points="766.7,468.8 763.2,516.4 847.6,516.4 847.6,722.5 731,722.5 731,666.3 793.6,666.3 
	793.6,562.9 705.7,562.9 716.4,468.5 708.4,468.5 "/>
<polygon id="XMLID_175_" class="st0" points="1019.7,722.5 1067.6,722.5 1054.6,516.4 950.5,516.4 945.5,562.9 1009.7,562.9 
	1009.7,600.2 924,600.2 905,722.5 957.3,722.5 967.3,655 1013.7,655 "/>
<g id="XMLID_96_">
	<polygon id="XMLID_153_" class="st0" points="897.1,721.3 909,644.5 909,516.4 856.6,516.4 856.6,722.5 896.9,722.5 	"/>
</g>
</svg>
