<?xml version="1.0" encoding="utf-8"?>
<!-- Generator: Adobe Illustrator 19.0.0, SVG Export Plug-In . SVG Version: 6.00 Build 0)  -->
<svg version="1.1" id="Layer_1" xmlns="http://www.w3.org/2000/svg" xmlns:xlink="http://www.w3.org/1999/xlink" x="0px" y="0px"
	 viewBox="69 467.5 1035.8 292" style="enable-background:new 69 467.5 1035.8 292;" xml:space="preserve">
<style type="text/css">
	.st0{stroke:#000000;stroke-width:38;stroke-miterlimit:10;}
	.st1{stroke:#000000;stroke-width:30;stroke-miterlimit:10;}
	.st2{fill:#FFFFFF;}
</style>
<g>
	<path id="XMLID_12_" class="st0" d="M90,529.8h151.6c5.2,5.2,8.1,8.1,13.3,13.3v197.4h-30.7c-11.1-11.1-17.3-17.3-28.3-28.3V580.9
		h-77.6c-11.1-11.1-17.3-17.3-28.3-28.3V529.8L90,529.8L90,529.8z"/>
	<path id="XMLID_11_" class="st1" d="M90.8,644.7h22.1c11.1,11.1,17.3,17.3,28.3,28.3v66.5h-22.1c-11.1-11.1-17.3-17.3-28.3-28.3
		V644.7L90.8,644.7L90.8,644.7z"/>
	<path id="XMLID_10_" class="st0" d="M264.5,529.8h39.1c5.2,5.2,8.1,8.1,13.3,13.3v81.5h-52.4V529.8L264.5,529.8L264.5,529.8z"/>
	<path id="XMLID_9_" class="st0" d="M474.7,529.8h158.4c5.2,5.2,8.1,8.1,13.3,13.3v197.4h-62.7c-11.1-11.1-17.3-17.3-28.3-28.3
		v-27.9h35.8V578.9H554l-22.7,161.6h-62.6l26.8-161.6H488c-5.2-5.2-8.1-8.1-13.3-13.3V529.8L474.7,529.8L474.7,529.8z"/>
	<g id="XMLID_7_">
		<path id="XMLID_8_" class="st0" d="M460.8,739.2l9.1-54.9h-25.8V558.2c-11.1-11.1-17.3-17.3-28.3-28.3h-89.6v51.1h65.2l0.1,103.4
			H267v56.2h193.6L460.8,739.2L460.8,739.2z"/>
	</g>
	<path id="XMLID_6_" class="st0" d="M659.1,529.8h40.8c5.2,5.2,8.1,8.1,13.3,13.3v197.4h-54.1V529.8L659.1,529.8L659.1,529.8z"/>
	<path id="XMLID_5_" class="st0" d="M781.5,517l-1.3,17.5h71.1c5.2,5.2,8.1,8.1,13.3,13.3v192.8h-88.3
		c-11.1-11.1-17.3-17.3-28.3-28.3v-27.9h62.6V580.9h-87.9l10.7-94.4h19.8C764.4,498.6,770.3,504.9,781.5,517z"/>
	<path id="XMLID_4_" class="st0" d="M1084.6,740.5L1073.3,561c-10.9-10.2-17.4-16.3-28.3-26.6h-77.5l-3.4,31.8
		c5.3,5.9,8,8.9,13.2,14.7h49.4v37.3H941l-19,122.3h52.3l10-67.5h46.4l3.7,41.7c10.8,9.9,17.4,15.9,28.2,25.8H1084.6z"/>
	<g id="XMLID_1_">
		<path id="XMLID_3_" class="st0" d="M926,662.5v-99.8c-11.1-11.1-17.3-17.3-28.3-28.3h-24.1v206.1h40.3L926,662.5z"/>
	</g>
</g>
<g>
	<g id="XMLID_199_">
		<polygon class="st2" points="178.4,718.1 178.4,558.5 72.5,558.5 72.5,514.3 230.4,514.3 230.4,718.1 		"/>
		<path d="M226.9,517.8v196.7h-45V561.9v-7h-7H76v-37.1H226.9 M233.9,510.8H69v51.1h105.9v159.6h59V510.8L233.9,510.8z"/>
	</g>
	<g id="XMLID_194_">
		<rect x="74.3" y="630.3" class="st2" width="43.4" height="87.8"/>
		<path d="M114.2,633.7v80.8H77.8v-80.8H114.2 M121.2,626.7H70.8v94.8h50.4V626.7L121.2,626.7z"/>
	</g>
	<g id="XMLID_189_">
		<rect x="247" y="514.3" class="st2" width="45.4" height="87.8"/>
		<path d="M288.9,517.8v80.8h-38.4v-80.8H288.9 M295.9,510.8h-52.4v94.8h52.4V510.8L295.9,510.8z"/>
	</g>
	<g id="XMLID_179_">
		<polygon class="st2" points="537.9,718.1 537.9,668.8 573.7,668.8 573.7,556.5 530,556.5 507.3,718.1 451.8,718.1 478.6,556.5 
			457.2,556.5 457.2,514.3 621.9,514.3 621.9,718.1 		"/>
		<path d="M618.4,517.8v196.7h-77v-42.2h28.8h7v-7V559.9v-7h-7H533h-6.1l-0.8,6l-21.9,155.6H456l25.4-153.5l1.4-8.1h-8.3h-13.8
			v-35.1H618.4 M625.4,510.8H453.7v49.1h20.8l-26.8,161.6h62.6L533,559.9h37.2v105.4h-35.8v56.2h91V510.8L625.4,510.8z"/>
	</g>
	<g id="XMLID_114_">
		<g id="XMLID_117_">
			<polygon class="st2" points="249.5,718.1 249.5,668.8 374,668.8 373.9,558.5 308.7,558.5 308.7,514.3 419.6,514.3 419.6,668.8 
				444.8,668.8 436.6,718.1 			"/>
			<path d="M416.1,517.8v147.5v7h7h17.5l-7,42.2H253v-42.2h117.5h7l0-7l-0.1-103.4l0-7h-7h-58.2v-37.1H416.1 M423.1,510.8H305.2
				v51.1h65.2l0.1,103.4H246v56.2h193.6l0.2-1.3l9.1-54.9h-25.8V510.8L423.1,510.8z"/>
		</g>
	</g>
	<g id="XMLID_173_">
		<rect x="641.6" y="514.3" class="st2" width="47.1" height="203.7"/>
		<path d="M685.2,517.8v196.7h-40.1V517.8H685.2 M692.2,510.8h-54.1v210.7h54.1V510.8L692.2,510.8z"/>
	</g>
	<g id="XMLID_2_">
		<polygon class="st2" points="730.5,718.1 730.5,668.8 793.1,668.8 793.1,558.5 705.6,558.5 715.5,471.1 759,471.1 755.4,519 
			840.1,519 840.1,718.1 		"/>
		<path d="M755.2,474.5l-3,40.4l-0.6,7.5h7.5h77.4v192.1H734v-42.2h55.6h7v-7V561.9v-7h-7h-80.1l9.1-80.4H755.2 M762.8,467.5h-50.3
			l-10.7,94.4h87.9v103.4H727v56.2h116.6V515.4h-84.4L762.8,467.5L762.8,467.5z"/>
	</g>
	<g id="XMLID_175_">
		<polygon class="st2" points="1018.9,718.1 1012.9,650.6 960.3,650.6 950.3,718.1 905.1,718.1 923,602.8 1009.2,602.8 
			1009.2,558.5 945.4,558.5 949.6,519 1047.3,519 1059.9,718.1 		"/>
		<path d="M1044,522.4l12.1,192.1h-34l-5.4-61.1l-0.6-6.4h-6.4h-46.4h-6l-0.9,6l-9.1,61.5h-38.1L926,606.2h79.7h7v-7v-37.3v-7h-7
			h-56.4l3.5-32.5H1044 M1050.6,515.4H946.5l-5,46.5h64.2v37.3H920l-19,122.3h52.3l10-67.5h46.4l6,67.5h47.9L1050.6,515.4
			L1050.6,515.4z"/>
	</g>
	<g id="XMLID_96_">
		<g id="XMLID_153_">
			<polygon class="st2" points="856.1,718.1 856.1,519 901.5,519 901.5,643.3 889.9,718.1 			"/>
			<path d="M898,522.4V643l-11.1,71.5h-27.3V522.4H898 M905,515.4h-52.4v206.1h40.3l12.1-78V515.4L905,515.4z"/>
		</g>
	</g>
</g>
</svg>
